<svg width="63" height="63" viewBox="0 0 63 63" fill="none" xmlns="http://www.w3.org/2000/svg">
<path d="M59.4101 19.8579L37.5839 2.0745C34.2139 -0.686093 28.7652 -0.686093 25.4267 2.0424L3.60052 19.8579C1.14389 21.8481 -0.430871 26.053 0.104548 29.1988L4.29341 54.7503C5.0493 59.3085 9.33265 63 13.868 63H49.1427C53.6465 63 57.9613 59.2764 58.7172 54.7503L62.9061 29.1988C63.41 26.053 61.8352 21.8481 59.4101 19.8579ZM31.5053 42.745C27.159 42.745 23.6315 39.1498 23.6315 34.72C23.6315 30.2902 27.159 26.695 31.5053 26.695C35.8517 26.695 39.3791 30.2902 39.3791 34.72C39.3791 39.1498 35.8517 42.745 31.5053 42.745Z" fill="#D0D0D0"/>
</svg>
