<svg width="46" height="63" viewBox="0 0 46 63" fill="none" xmlns="http://www.w3.org/2000/svg">
<path d="M40.9929 42.846L27.1817 31.343H17.9172L4.10595 42.846C0.242902 46.0431 -1.02199 50.964 0.858253 55.4147C2.7385 59.8342 7.31945 62.6864 12.4816 62.6864H32.6173C37.8136 62.6864 42.3604 59.8342 44.2406 55.4147C46.1209 50.964 44.856 46.0431 40.9929 42.846ZM28.7884 50.5879H16.3446C15.0455 50.5879 14.02 49.6162 14.02 48.4565C14.02 47.2968 15.0797 46.3252 16.3446 46.3252H28.7884C30.0875 46.3252 31.1131 47.2968 31.1131 48.4565C31.1131 49.6162 30.0533 50.5879 28.7884 50.5879Z" fill="#D0D0D0"/>
<path d="M44.2812 7.27167C42.4009 2.85225 37.82 0 32.6578 0H12.4881C7.326 0 2.74505 2.85225 0.864804 7.27167C-0.981253 11.7224 0.283639 16.6433 4.14668 19.8404L17.9578 31.3434H27.2222L41.0335 19.8404C44.8623 16.6433 46.1272 11.7224 44.2812 7.27167ZM28.7948 16.3926H16.351C15.0521 16.3926 14.0265 15.421 14.0265 14.2612C14.0265 13.1015 15.0863 12.1299 16.351 12.1299H28.7948C30.0939 12.1299 31.1195 13.1015 31.1195 14.2612C31.1195 15.421 30.0597 16.3926 28.7948 16.3926Z" fill="#D0D0D0"/>
</svg>
